<?xml version="1.0" standalone="no"?><!DOCTYPE svg PUBLIC "-//W3C//DTD SVG 1.1//EN" "http://www.w3.org/Graphics/SVG/1.1/DTD/svg11.dtd"><svg t="1676348032699" class="icon" viewBox="0 0 1024 1024" version="1.1" xmlns="http://www.w3.org/2000/svg" p-id="3186" xmlns:xlink="http://www.w3.org/1999/xlink" width="200" height="200"><path d="M785.6128 108.3392H241.3568c-73.0624 0-132.5056 59.4432-132.5056 132.5056v544.3072c0 73.0624 59.4432 132.5056 132.5056 132.5056h544.3072c73.0624 0 132.5056-59.4432 132.5056-132.5056V240.7936c-0.0512-73.0624-59.4944-132.4544-132.5568-132.4544z m71.0656 676.7616c0 39.168-31.8976 71.0656-71.0656 71.0656H241.3568c-39.168 0-71.0656-31.8976-71.0656-71.0656V240.7936c0-39.168 31.8976-71.0656 71.0656-71.0656h544.3072c39.168 0 71.0656 31.8976 71.0656 71.0656v544.3072z" fill="#707070" p-id="3187" data-spm-anchor-id="a313x.7781069.0.i1" class="selected"></path><path d="M695.6032 720.64H331.3664c-16.9472 0-30.72 13.7728-30.72 30.72s13.7728 30.72 30.72 30.72h364.288c16.9472 0 30.72-13.7728 30.72-30.72s-13.7728-30.72-30.7712-30.72z" fill="#707070" p-id="3188" data-spm-anchor-id="a313x.7781069.0.i2" class="selected"></path><path d="M333.9776 684.6464h359.0144c16.9472 0 30.72-13.7728 30.72-30.72 0-88.9856-55.6032-165.1712-133.8368-195.7888 27.4944-22.3232 45.1584-56.32 45.1584-94.4128 0-67.0208-54.528-121.5488-121.5488-121.5488S391.936 296.704 391.936 363.7248c0 38.0928 17.6128 72.1408 45.1584 94.4128-78.2336 30.6176-133.8368 106.8032-133.8368 195.7888 0 16.9984 13.7728 30.72 30.72 30.72z m179.5072-380.9792c33.1264 0 60.1088 26.9312 60.1088 60.1088s-26.9312 60.0576-60.1088 60.0576-60.1088-26.9312-60.1088-60.0576 26.9824-60.1088 60.1088-60.1088z m0 201.5232c71.5264 0 131.3792 50.688 145.5616 118.0672H367.872c14.2336-67.3792 74.0864-118.0672 145.6128-118.0672z" fill="#707070" p-id="3189" data-spm-anchor-id="a313x.7781069.0.i0" class="selected"></path></svg>